<svg xmlns="http://www.w3.org/2000/svg" viewBox="0 0 274.53 264.01"><path d="M273.9 190.42a68.83 68.83 0 0 0-35.51-56.06H274V129a68.9 68.9 0 0 0-48.41-64.7 71.58 71.58 0 0 0-10.22-2.34h-.53q-2.73-.39-5.46-.55v-.14h-8.57v.14a68 68 0 0 0-8.54 1.06 66.8 66.8 0 0 0-11.75 3.32 69 69 0 0 0-35.25 30.18 68.07 68.07 0 0 0-6.94 17.25V.5H65.15v126.25H.5v4.17l.13 4.29a69.53 69.53 0 0 0 1.21 9.28 68.9 68.9 0 0 0 63.29 55.21l4.3.05v0h4.28a66.82 66.82 0 0 0 34.33-11.64 68.78 68.78 0 0 0 29.3-45.52 67.85 67.85 0 0 0 3.72 12.94 69.5 69.5 0 0 0 26.38 32.25l4 2.63h-35.28v4.17l.13 4.28a71.11 71.11 0 0 0 1.2 9.29 68.9 68.9 0 0 0 63.3 55.2l4.28.14h4.38a70.17 70.17 0 0 0 13-2.06A68.86 68.86 0 0 0 273.89 199h.11v-8.57zm-208.77.66H65l-1-.08a60.25 60.25 0 0 1-27-9.17 60.88 60.88 0 0 1-20.91-22.58 60.07 60.07 0 0 1-6.91-23.93h55.95zm64.65-182v52.1H73.72V9.07zm-.16 126.33v.1c0 .31-.05.63-.08.95a60.3 60.3 0 0 1-55.82 54.78v-55.92h55.91zm-55.9-8.64v-57h56.06v57zm127.07 128h-.17l-1-.08a60.28 60.28 0 0 1-54.78-55.82h55.91zm0-64.5l-1.6-.15a60.32 60.32 0 0 1-54.29-55.61v-.17h55.91zm0-64.5h-55.87A60.17 60.17 0 0 1 161 88.9a61.65 61.65 0 0 1 14.8-11.58 59.58 59.58 0 0 1 14.32-5.71 61.13 61.13 0 0 1 10.64-1.72h.07zm8.57-55.91h0a60.36 60.36 0 0 1 55.9 55.91H209.4zm0 64.63h0a60.34 60.34 0 0 1 55.91 55.91H209.4zm55.91 64.55q-.09 1.29-.24 2.58a60.29 60.29 0 0 1-55.63 53.28h0V199h55.91z" stroke="#000" stroke-miterlimit="10" data-name="Layer 2"/></svg>