<svg xmlns="http://www.w3.org/2000/svg" viewBox="0 0 383.9 383.9"><defs><style>.cls-2{fill:#fff}</style></defs><g id="Layer_2" data-name="Layer 2"><g id="logo"><path fill="#151db7" d="M0 0h383.9v383.9H0z"/><path class="cls-2" d="M127.4 186.7h56.06V69H127.4zm55.91 8.57H127.4v55.91a60.06 60.06 0 0 0 24.08-6.91 61.06 61.06 0 0 0 22.58-20.92 60.32 60.32 0 0 0 9.16-26.95c0-.32.06-.64.08-1v-.17zm8.69-8.57v8.57h-.14a68.9 68.9 0 0 1-55.2 63.29 71 71 0 0 1-9.29 1.15h-4.28l-4.29-73V60.45H192zm71.06 136.72v-73h-73.22v4.18l.14 4.28a68.88 68.88 0 0 0 64.49 64.49l4.28.14h4.29zm-8.66-8.69h-.1l-1-.08a60.21 60.21 0 0 1-27-9.17 60.91 60.91 0 0 1-20.92-22.58 60.13 60.13 0 0 1-6.91-24.07h55.91v55.91z"/><path class="cls-2" d="M127.4 259.71v-73H54.18v4.17l.14 4.28a69.44 69.44 0 0 0 1.2 9.29 68.72 68.72 0 0 0 10.49 25 68.86 68.86 0 0 0 52.8 30.16l8.57.11zm-8.66-8.71h-.1l-1-.08a60.32 60.32 0 0 1-26.95-9.16 61 61 0 0 1-20.91-22.58 60.08 60.08 0 0 1-6.92-23.93h55.91V251zm208.98-.63h-.14a68.81 68.81 0 0 0-35.5-56.06h35.64v-5.4a68.88 68.88 0 0 0-58.63-67h-.54c-1.81-.25-3.63-.44-5.45-.55v-.13h-8.57v.13a72.08 72.08 0 0 0-8.53.94 68.87 68.87 0 0 0-56 63.44h-.14v8.57h.14a68.88 68.88 0 0 0 4.72 21.18 69.6 69.6 0 0 0 26.38 32.25l4 2.63h-35.21v4.41h68.83v68.67h4.41a70 70 0 0 0 13-2.06 68.89 68.89 0 0 0 51.46-62.44h.14v-8.56zm-73.2-.13l-1.61-.16a60.33 60.33 0 0 1-54.29-55.6v-.17h55.91zm0-120.41v55.91h-55.91a59.95 59.95 0 0 1 16.08-36.89 61.6 61.6 0 0 1 14.79-11.58 59.25 59.25 0 0 1 14.33-5.71 60 60 0 0 1 10.63-1.73zm8.57 0A60.34 60.34 0 0 1 319 185.74h-55.91zm0 64.63A60.34 60.34 0 0 1 319 250.37h-55.91zM319 259q-.09 1.29-.24 2.58a60.31 60.31 0 0 1-55.66 53.26v-55.91H319zM122.91 121.12h66.34v8.59h-66.34z"/></g></g></svg>