<svg xmlns="http://www.w3.org/2000/svg" viewBox="0 0 126.69 142.23"><defs><style>.cls-1{fill:#fff}</style></defs><g id="Layer_2" data-name="Layer 2"><g id="Isolation_Mode" data-name="Isolation Mode"><path class="cls-1" d="M103.7 61a1.08 1.08 0 0 1 .28.24 1.12 1.12 0 0 1 .26.73 1.09 1.09 0 0 1 0 .26v25l21.67 12.51a1.48 1.48 0 0 1 .29.12.87.87 0 0 1 .28.26 1.11 1.11 0 0 1 .22 1v26.69a1 1 0 0 1-.5.82l-23.07 13.32a1.18 1.18 0 0 1-.25.19 1.15 1.15 0 0 1-.37.12 1.09 1.09 0 0 1-.74-.14 1.56 1.56 0 0 1-.2-.16l-23.14-13.37a1 1 0 0 1-.49-.86v-25.34L56 89.72a1.11 1.11 0 0 1-.5-.92V62.2a1.36 1.36 0 0 1 0-.29.92.92 0 0 1 .07-.36A1.07 1.07 0 0 1 56 61a.82.82 0 0 1 .24-.1l23.1-13.36a1 1 0 0 1 .49-.12 1.15 1.15 0 0 1 .55.14l23 13.3a1.18 1.18 0 0 1 .32.14zm20.81 66.08v-24.41l-21.14 12.2v24.39zm-44.42 0l6.08 3.51 15 8.68v-24.4l-21.13-12.2zM57.63 88.19l12.07 7 9.07 5.23V76L57.63 63.79zm22.21-38.46l-21.13 12.2 21.13 12.2L101 61.93zm22.21 38.16v-24.1L80.92 76v24.68L102.3 113l21.13-12.2-20.88-12a1 1 0 0 1-.5-.91z"/><path class="cls-1" d="M71.25 14.8v26.66a1 1 0 0 1-.5.85L48.79 55v25.32a1.08 1.08 0 0 1-.54.89l-23 13.3a1.08 1.08 0 0 1-.24.18.8.8 0 0 1-.34.11 1.09 1.09 0 0 1-.77-.13.83.83 0 0 1-.21-.16L.58 81.19a1 1 0 0 1-.5-.8V53.78a1.16 1.16 0 0 1-.08-.37 1 1 0 0 1 .28-.7 1.1 1.1 0 0 1 .33-.28.82.82 0 0 1 .24-.1l21.68-12.51v-25a1 1 0 0 1 0-.3 1 1 0 0 1 .08-.39 1.11 1.11 0 0 1 .5-.57.94.94 0 0 1 .23-.1L46.35.15h.09a1 1 0 0 1 .45-.15 1 1 0 0 1 .5.13l23.08 13.32a1.69 1.69 0 0 1 .28.12 1 1 0 0 1 .28.26 1.06 1.06 0 0 1 .25.71 1.15 1.15 0 0 1-.03.26zM25.51 91.86l21.13-12.2v-24.4l-21.13 12.2zM2.22 79.66l21.14 12.19V67.46L2.22 55.26zm22-38.31l-13.82 8-7.1 4.05 21.13 12.2 21.38-12.34V28.58l-21.13-12.2v24.11a1 1 0 0 1-.5.86zm22.71-39L25.75 14.52l21.14 12.2L68 14.52zM48 28.58V53l13.56-7.83 7.58-4.37V16.38z"/></g></g></svg>