<svg xmlns="http://www.w3.org/2000/svg" viewBox="0 0 126.69 142.29"><defs><style>.cls-1{fill:#fff}</style></defs><g id="Layer_2" data-name="Layer 2"><g id="Isolation_Mode" data-name="Isolation Mode"><path class="cls-1" d="M103.7 81.28a.92.92 0 0 0 .3-.28 1.11 1.11 0 0 0 .26-.73 1.17 1.17 0 0 0 0-.26V55l21.67-12.51a1.48 1.48 0 0 0 .29-.12 1 1 0 0 0 .28-.26 1.11 1.11 0 0 0 .22-1V14.47a1 1 0 0 0-.5-.83L103.08.32a1.14 1.14 0 0 0-.25-.18.81.81 0 0 0-.37-.12 1.09 1.09 0 0 0-.74.14 1 1 0 0 0-.2.15L78.43 13.65a1 1 0 0 0-.49.86v25.35L56 52.54a1.09 1.09 0 0 0-.5.91v26.61a1.36 1.36 0 0 0 0 .29.89.89 0 0 0 .07.36 1.13 1.13 0 0 0 .5.6l.24.09 23.03 13.33a1 1 0 0 0 .49.12 1.15 1.15 0 0 0 .55-.14l23-13.31a1.18 1.18 0 0 0 .32-.12zm20.81-66.11v24.41l-21.14-12.2V3zm-44.42 0l6.08-3.51 15-8.69v24.4L80.09 39.58zm-22.46 38.9l12.07-7 9.07-5.24v24.44l-21.14 12.2zm22.21 38.47L58.71 80.33l21.13-12.2L101 80.33zm22.21-38.18v24.11l-21.13-12.2V41.58l21.38-12.34 21.13 12.2-20.88 12.05a1 1 0 0 0-.5.87z"/><path class="cls-1" d="M71.25 127.49v-26.68a1 1 0 0 0-.5-.85l-22-12.67V61.94a1.08 1.08 0 0 0-.54-.89l-23-13.31a1.08 1.08 0 0 0-.24-.18.8.8 0 0 0-.34-.11 1.09 1.09 0 0 0-.77.13.87.87 0 0 0-.21.17L.58 61.07a1 1 0 0 0-.5.8v26.62a1.11 1.11 0 0 0-.07.37 1 1 0 0 0 .28.7 1.26 1.26 0 0 0 .33.28l.24.1 21.68 12.51v25a1 1 0 0 0 0 .3 1 1 0 0 0 .08.38 1.11 1.11 0 0 0 .5.57.67.67 0 0 0 .23.1l23.05 13.3.09.05a1 1 0 0 0 .45.11 1 1 0 0 0 .5-.14l23.08-13.32a1.69 1.69 0 0 0 .28-.12.87.87 0 0 0 .28-.26 1.06 1.06 0 0 0 .25-.71 1 1 0 0 0-.08-.22zM25.51 50.4l21.13 12.2V87L25.51 74.8zM2.22 62.6l21.14-12.2v24.4L2.22 87zm22 38.32l-13.82-8-7.1-4.05 21.13-12.21L45.81 89v24.68L24.68 125.9v-24.11a1 1 0 0 0-.5-.87zm22.71 39l-21.14-12.2 21.14-12.2L68 127.76zM48 113.7V89.29l13.56 7.83 7.58 4.37v24.41z"/></g></g></svg>