<svg xmlns="http://www.w3.org/2000/svg" viewBox="0 0 256 256"><g data-name="Layer 2"><g data-name="Layer 1"><circle cx="128" cy="128" r="123" fill="none" stroke="#fff" stroke-miterlimit="10" stroke-width="10"/><path d="M197.23 106.9v42.19a6.06 6.06 0 0 1-2.62 4.95l-63.29 42.19a6 6 0 0 1-6.64 0L61.39 154a6.06 6.06 0 0 1-2.62-4.95V106.9a6 6 0 0 1 2.62-4.9l63.29-42.19a6 6 0 0 1 6.64 0L194.61 102a6 6 0 0 1 2.62 4.9zM70.67 138l14.91-10-14.91-10zm4.79-31.07l20.78 13.91 25.81-17.23V75.84zm46.59 45.51l-25.81-17.26-20.78 13.91 46.59 31.06zM149 128l-21-14.07L107 128l21 14.06zm-15-24.42l25.81 17.23 20.78-13.91L134 75.84zm46.59 45.51l-20.78-13.91L134 152.41v27.74zm4.74-31.09l-14.91 10 14.91 10z" fill="#fff"/></g></g></svg>