<svg xmlns="http://www.w3.org/2000/svg" viewBox="0 0 53 49"><defs><style>.cls-1{fill:#151db7;stroke:#151db7;stroke-miterlimit:10}</style></defs><g id="Layer_2" data-name="Layer 2"><g id="Capa_1" data-name="Capa 1"><path class="cls-1" d="M44.5.5h-40a4 4 0 0 0-4 4v36a4 4 0 0 0 4 4h16a1 1 0 0 0 0-2h-16a2 2 0 0 1-2-2v-26h44v3a1 1 0 0 0 2 0v-13a4 4 0 0 0-4-4zm2 12h-44v-8a2 2 0 0 1 2-2h40a2 2 0 0 1 2 2z"/><circle class="cls-1" cx="8.5" cy="7.5" r="1.5"/><circle class="cls-1" cx="15.5" cy="7.5" r="1.5"/><path class="cls-1" d="M44.45 39.17a10.94 10.94 0 1 0-1.28 1.28L51 48.23A.91.91 0 1 0 52.23 47zm-8.32 2a9.1 9.1 0 1 1 9.09-9.09 9.11 9.11 0 0 1-9.09 9.14z"/></g></g></svg>