<svg xmlns="http://www.w3.org/2000/svg" viewBox="0 0 256 256"><g data-name="Layer 2"><g data-name="Layer 1"><path d="M198.91 165.35c-12.08 24.41-45.29 23.84-69.06 23.84-24.16 0-59.34.86-71.9-23.84-4.65-9.24-6.44-20.11-6.44-30.28a54.84 54.84 0 0 1 13.23-36.2 49.79 49.79 0 0 1-2.45-15.55c0-6.85 1.56-10.3 4.65-16.51 14.44 0 23.68 2.87 34.67 11.47a122 122 0 0 1 28.27-3.18A109.82 109.82 0 0 1 155.5 78c10.84-8.51 20.08-11.22 34.36-11.22 3.12 6.21 4.65 9.66 4.65 16.51a49.32 49.32 0 0 1-2.45 15.36c8.76 10.32 12.43 23 12.43 36.39 0 10.2-1.02 20.96-5.58 30.31zm-38.34-40.51c-6 0-11.79 1.09-17.85 1.91a92.7 92.7 0 0 1-14.37 1 93.32 93.32 0 0 1-14.37-1c-6-.82-11.79-1.91-17.85-1.91-14.91 0-23.42 12.34-23.42 26.33 0 28 25.62 32.28 47.93 32.28H136c22.4 0 48-4.27 48-32.28 0-13.99-8.52-26.33-23.43-26.33zm-61.44 43.89c-8.23 0-11.7-10.9-11.7-17.56s3.47-17.56 11.7-17.56 11.69 10.9 11.69 17.56-3.47 17.56-11.69 17.56zm70.24-17.56c0 6.66-3.48 17.56-11.7 17.56S146 157.83 146 151.17s3.48-17.56 11.7-17.56 11.67 10.9 11.67 17.56z" fill="#fff"/><circle cx="128" cy="128" r="123" fill="none" stroke="#fff" stroke-miterlimit="10" stroke-width="10"/></g></g></svg>