<svg xmlns="http://www.w3.org/2000/svg" viewBox="0 0 133.24 100.35"><path d="M117.12 1h-101A15.13 15.13 0 0 0 1 16.12v68.11a15.13 15.13 0 0 0 15.12 15.12h101a15.13 15.13 0 0 0 15.12-15.12V16.12A15.13 15.13 0 0 0 117.12 1zM81.26 50.18l45-38.8a10.22 10.22 0 0 1 1.16 4.74v68.11a10.22 10.22 0 0 1-1.16 4.77zm35.86-44.36a10.24 10.24 0 0 1 6 1.93l-56.5 48.69L10.14 7.75a10.21 10.21 0 0 1 6-1.93zM7 89a10.22 10.22 0 0 1-1.16-4.74V16.12A10.22 10.22 0 0 1 7 11.38l45 38.8zm9.14 5.56a10.24 10.24 0 0 1-6-1.93l45.52-39.27 9.39 8.09a2.41 2.41 0 0 0 3.14 0l9.38-8.09L123.1 92.6a10.24 10.24 0 0 1-6 1.93z" fill="#adadbd" stroke="#adadbd" stroke-miterlimit="10" stroke-width="2" data-name="Layer 2"/></svg>