<svg xmlns="http://www.w3.org/2000/svg" viewBox="0 0 23.03 27.76"><defs><style>.cls-1{fill:#adadbd;stroke:#adadbd;stroke-miterlimit:10;stroke-width:.75px}</style></defs><g id="Layer_2" data-name="Layer 2"><g id="Isolation_Mode" data-name="Isolation Mode"><path class="cls-1" d="M11.52 14.93a7.28 7.28 0 1 0-7.28-7.28 7.28 7.28 0 0 0 7.28 7.28zm0-13.55a6.28 6.28 0 1 1-6.28 6.27 6.27 6.27 0 0 1 6.28-6.27z"/><path class="cls-1" d="M15.44 13.93H7.6a7.22 7.22 0 0 0-7.22 7.22v5.74a.5.5 0 0 0 .5.5h21.28a.51.51 0 0 0 .5-.5v-5.74a7.23 7.23 0 0 0-7.22-7.22zm6.22 12.46h-3.4v-4.27a.5.5 0 0 0-.5-.5.5.5 0 0 0-.5.5v4.27H5.74a.29.29 0 0 0 0-.09v-4.18a.5.5 0 0 0-.5-.5.5.5 0 0 0-.5.5v4.27H1.38v-5.24a6.23 6.23 0 0 1 6.22-6.22h7.84a6.23 6.23 0 0 1 6.22 6.22z"/></g></g></svg>