<svg xmlns="http://www.w3.org/2000/svg" viewBox="0 0 583.75 432.96"><defs><style>.cls-1{fill:#06ebea}.cls-2{fill:#fff}</style></defs><g id="Layer_2" data-name="Layer 2"><g id="Layer_1-2" data-name="Layer 1"><path class="cls-1" transform="rotate(-20.56 363.807 102.916)" d="M359.66 92.24h8.25v21.32h-8.25z"/><path class="cls-1" d="M141.66 406.06l-43.42 16.29-6.1-16.29h-8.82L93.41 433l71.72-26.9zM490.33 0L376.44 42.73l1.45 3.86a33 33 0 1 1-61.78 23.17l-1.44-3.86-153.81 57.69h23.48L310 76.45a41.24 41.24 0 0 0 76.84-28.82l98.64-37 42.38 113h8.8zM51.8 164.5L0 183.94 51.8 322v-23.45L10.62 188.76l41.18-15.45z"/><path class="cls-2" d="M424.99 173.08h8.25v21.32h-8.25zm0 32.43h8.25v21.32h-8.25zm0 32.44h8.25v21.32h-8.25zm0 32.43h8.25v21.32h-8.25zm0 32.44h8.25v21.32h-8.25zm0 32.43h8.25v21.32h-8.25z"/><path class="cls-2" d="M583.75 397.81H462.1v-4.12a33 33 0 1 0-66 0v4.12H60.05v-266h336.08V136a33 33 0 0 0 66 0v-4.13h121.62zm-113.6-8.24H575.5V140.09H470.15a41.24 41.24 0 0 1-82.07 0H68.3v249.48h319.78a41.24 41.24 0 0 1 82.07 0z"/></g></g></svg>