<svg xmlns="http://www.w3.org/2000/svg" viewBox="0 0 256 256"><g data-name="Layer 2"><g data-name="Layer 1"><circle cx="128" cy="128" r="123" fill="none" stroke="#fff" stroke-miterlimit="10" stroke-width="10"/><path d="M187.88 101.35c0 40.79-31 87.77-87.77 87.77a87.22 87.22 0 0 1-47.37-13.84 65.19 65.19 0 0 0 7.45.38 61.78 61.78 0 0 0 38.3-13.18 30.9 30.9 0 0 1-28.84-21.4 38.4 38.4 0 0 0 5.82.48 32.57 32.57 0 0 0 8.12-1.05 30.84 30.84 0 0 1-24.74-30.27v-.39a31 31 0 0 0 13.95 3.92 30.87 30.87 0 0 1-9.55-41.26 87.68 87.68 0 0 0 63.6 32.28 35.35 35.35 0 0 1-.76-7.07 30.88 30.88 0 0 1 53.39-21.1 60.9 60.9 0 0 0 19.58-7.45 30.8 30.8 0 0 1-13.56 17 61.87 61.87 0 0 0 17.76-4.78 66.2 66.2 0 0 1-15.47 16c.09 1.29.09 2.61.09 3.96z" fill="#fff"/></g></g></svg>