<svg xmlns="http://www.w3.org/2000/svg" viewBox="0 0 392.9 392.9"><defs><style>.cls-1{fill:#fff}</style></defs><g id="Layer_2" data-name="Layer 2"><g id="logo"><path class="cls-1" d="M392.9 392.9H0V0h392.9zM9 383.9h374.9V9H9z"/><path class="cls-1" d="M333.08 254.87a68.81 68.81 0 0 0-35.5-56.06h35.64v-5.4a68.88 68.88 0 0 0-58.63-67h-.54c-1.81-.25-3.63-.44-5.45-.55v-.13H260v.13a72.08 72.08 0 0 0-8.55 1.06 68.75 68.75 0 0 0-53.94 50.76V65h-73.2v126.19H59.66v4.17l.14 4.28a69.44 69.44 0 0 0 1.2 9.26 68.72 68.72 0 0 0 10.49 25 68.86 68.86 0 0 0 52.8 30.16l4.31.06h4.28a71 71 0 0 0 9.29-1.15 68.83 68.83 0 0 0 54.35-56 68.65 68.65 0 0 0 3.71 13 69.6 69.6 0 0 0 26.38 32.25l4 2.63h-35.27v4.18l.14 4.28A68.88 68.88 0 0 0 260 327.82l4.28.14h4.38a70 70 0 0 0 13-2.06 68.89 68.89 0 0 0 51.46-62.44h.14v-8.56zm-208.77.65h-.17l-1-.08a60.32 60.32 0 0 1-26.95-9.16 61 61 0 0 1-20.91-22.58 60.08 60.08 0 0 1-6.92-23.93h55.91zM189 73.51v52.11h-56.1V73.51zm-.15 126.34v.09c0 .32-.05.64-.08 1a60.32 60.32 0 0 1-9.16 26.95A61 61 0 0 1 157 248.77a60.06 60.06 0 0 1-24.08 6.91v-55.91h55.91zm-55.95-8.65v-57H189v57zM260 319.24h-.17l-1-.08a60.21 60.21 0 0 1-26.94-9.16A60.91 60.91 0 0 1 211 287.4a60.13 60.13 0 0 1-6.91-24.07H260zm0-64.5l-1.61-.16A60.33 60.33 0 0 1 204.12 199v-.17H260zm0-64.5h-55.89a59.95 59.95 0 0 1 16.08-36.89A61.6 61.6 0 0 1 235 141.77a59.25 59.25 0 0 1 14.33-5.71 60 60 0 0 1 10.63-1.73h.04zm8.57-55.91a60.34 60.34 0 0 1 55.91 55.91h-55.89zm0 64.63a60.34 60.34 0 0 1 55.91 55.91h-55.89zm55.9 64.55q-.09 1.29-.24 2.58a60.31 60.31 0 0 1-55.66 53.26v-55.92h55.93z"/></g></g></svg>